PathFileType	4	(X/Y/Z)	RBDS04\RBDS04runT35.trc
DataRate	CameraRate	NumFrames	NumMarkers	Units	OrigDataRate	OrigDataStartFrame	OrigNumFrames
150.000000	150.000000	6	33	mm	150.000000	3937	4500
Frame#	Time	L.ASIS			L.Heel.Bottom			L.Heel.Lateral			L.Heel.Top			L.Iliac.Crest			L.MT1			L.MT5			L.PSIS			L.Shank.Bottom.Lateral			L.Shank.Bottom.Medial			L.Shank.Top.Lateral			L.Shank.Top.Medial			L.Thigh.Bottom.Lateral			L.Thigh.Bottom.Medial			L.Thigh.Top.Lateral			L.Thigh.Top.Medial			R.ASIS			R.ASY			R.Heel.Bottom			R.Heel.Lateral			R.Heel.Top			R.Iliac.Crest			R.MT1			R.MT5			R.PSIS			R.Shank.Bottom.Lateral			R.Shank.Bottom.Medial			R.Shank.Top.Lateral			R.Shank.Top.Medial			R.Thigh.Bottom.Lateral			R.Thigh.Bottom.Medial			R.Thigh.Top.Lateral			R.Thigh.Top.Medial			
		X1	Y1	Z1	X2	Y2	Z2	X3	Y3	Z3	X4	Y4	Z4	X5	Y5	Z5	X6	Y6	Z6	X7	Y7	Z7	X8	Y8	Z8	X9	Y9	Z9	X10	Y10	Z10	X11	Y11	Z11	X12	Y12	Z12	X13	Y13	Z13	X14	Y14	Z14	X15	Y15	Z15	X16	Y16	Z16	X17	Y17	Z17	X18	Y18	Z18	X19	Y19	Z19	X20	Y20	Z20	X21	Y21	Z21	X22	Y22	Z22	X23	Y23	Z23	X24	Y24	Z24	X25	Y25	Z25	X26	Y26	Z26	X27	Y27	Z27	X28	Y28	Z28	X29	Y29	Z29	X30	Y30	Z30	X31	Y31	Z31	X32	Y32	Z32	X33	Y33	Z33	

3938	26.24666666666667	2239.344781478258	951.0948523238142	917.7926488412368	1971.831232970582	325.4645613288604	918.0845721350523	2008.146361866626	310.6336439257153	879.0215435415774	2015.435172474226	343.3197585106788	922.0034438422848	2176.265513203206	1013.51674076951	859.2515859104768	2103.911058790413	157.7097865119013	958.1505113898698	2082.633081747877	178.4881335830335	859.9856930046325	2070.592538559742	990.0756992715081	954.0203762508179	2130.161393765305	347.5223912577398	874.748032687701	2100.189894401239	381.3664759051011	897.6599382472288	2189.297275436213	402.1039399639436	864.72328337156	2161.345355029009	439.4767618288628	890.2105501153994	2336.991313647713	648.9183426720142	837.3142761812851	2283.508896409356	608.3855291808724	865.9862671099531	2264.015008964347	730.2370262329574	822.295140566289	2212.859871947224	691.9175319224607	848.1160662033633	2218.280403897315	937.0856868002475	1106.011489959113	586338729.2534715	1118606050.797117	-1955984081.077503	1734.183415175507	109.1396257631288	1000.504234520119	1765.454279229441	108.355276814791	1044.696140255277	1759.782469966753	146.6274131180917	1005.940128838168	2175.057180454361	1001.381819602664	1142.098962447411	1932.780581873489	43.56499962642398	980.2662102967797	1893.79714204679	44.89496114577554	1074.491147993908	2066.772656303378	989.4315250199844	1039.663318704104	1861.057367254651	208.6590997789289	1067.801258670732	1830.124716704978	237.1780991298939	1033.083765212212	1896.716604780793	278.3275832110265	1090.230641062432	1867.317041743282	305.0188481043064	1053.154817071289	2067.35740036982	575.1088192433616	1134.513541339309	2012.407269793054	587.1045044774874	1086.446051330858	2069.781983652635	683.2230997735588	1154.765353863813	2017.670208079272	694.7049837035274	1108.611139598592	
3939	26.25333333333333	2240.601140007428	957.434586073424	919.1629926874831	1988.657104744247	306.2927926534865	919.6645544065675	2025.418316197982	294.2641434735991	880.0992216350057	2030.98398390466	327.2571131886386	923.2462746544546	2177.234896920128	1020.080381011471	860.1852968510797	2132.675748570278	147.9595637752204	957.3301205354899	2108.863315937033	167.7461595824262	859.5798482216982	2072.21172531676	996.1535292990208	954.9616050864516	2145.321902884312	339.3335060958589	875.1437568514424	2113.300819110369	371.0432773582486	898.3572724691589	2200.706236931601	397.6753916678346	864.9216856283542	2170.567396845447	433.0479426441291	890.7400134681454	2340.263796404313	657.4016829418745	837.7148137450191	2286.859946967731	616.2402802568062	865.5965277454486	2266.767852750347	738.1782103547284	822.5672236174586	2215.695294628717	699.3172596233773	847.6990030442424	2219.785607180459	941.1234321277432	1106.984320975687	588772366.2569904	1123248980.505852	-1964101891.495064	1719.532181288905	122.8897590960058	1000.776625726601	1750.630059459935	119.5947327130569	1044.998890155492	1747.478437426964	158.4623433130878	1006.592133567816	2177.875144836416	1006.425069855624	1142.215800937416	1912.11782235549	43.59077789223039	980.6039763401677	1873.273054745185	46.72274196349275	1075.06856668533	2068.847451566435	994.7414834029443	1040.81771117366	1846.512633920851	217.0081511746005	1068.653127668215	1816.402520512427	245.045435117517	1032.921312357209	1881.746378973731	287.073991767711	1090.695064683596	1853.12354372475	313.2488990295221	1052.747732056541	2057.274534955871	582.9251636897981	1134.694801592912	2003.314912062889	596.9147810072369	1086.032381177999	2063.541143399968	690.8685096101091	1154.864259008996	2012.446918322554	704.2426082556087	1108.016380350515	
3940	26.26	2241.858422494257	963.4576831079304	920.2332987931326	2006.653933480734	286.9287317914207	921.133988963426	2043.647423125628	277.6468695834175	881.0804039766118	2047.489762382039	310.886850955906	924.3641905887296	2178.262082631569	1026.548697154183	860.9719535068299	2161.944150070245	138.9023076382756	956.6373043383887	2135.716652172575	157.3026020700299	859.2886626636108	2073.929934161888	1002.105566498407	955.799665098102	2160.843096282394	330.9215577477115	875.4773314359262	2126.916362573362	360.3626312042443	899.0149311150535	2212.19492094887	392.8114555490076	865.049202981602	2179.997113695868	426.0371057801148	891.2328421880842	2342.83677102187	665.1086131153843	838.2068800436354	2289.428446164247	623.4473068797497	865.321832888324	2269.007597955583	745.52423512018	822.9691406926066	2217.945163730301	706.2686890222374	847.4771492396553	2221.459609778097	945.151678185156	1107.712812553806	591212727.9229795	1127904739.905303	-1972242131.471366	1706.57948334981	137.4780820442679	1001.054328103568	1737.256184392016	131.5968407146464	1045.302456328912	1736.879195525934	170.8662914792152	1007.259737531459	2180.674159331473	1011.56475669869	1142.144328651579	1892.106895959086	44.14720618460549	981.0334618943018	1853.401982617285	49.10155265422226	1075.682798487658	2071.036422115126	1000.041522739914	1041.838352815728	1833.197938376362	225.5220994263722	1069.64876106535	1803.997843167165	252.9912015845449	1032.803491122888	1867.903851955319	296.0257438685924	1091.286198501852	1840.16677852826	321.5971947062961	1052.395228424041	2047.938961686821	591.0726116699267	1135.039988029179	1995.096411704842	606.8134611349528	1085.696647836382	2057.763683025493	698.7977374521879	1155.056283666106	2007.830656389786	713.808103932051	1107.421652793549	
3941	26.26666666666667	2243.079964550594	969.0688383848927	920.9972309100306	2025.825115798297	267.487932230426	922.4520207595848	2062.864094462866	260.8788317691935	881.9392899143744	2064.95912494705	294.3079478628557	925.3154808097584	2179.315781048417	1032.81860669296	861.617322165793	2191.613820214343	130.6062219496863	956.0994305597593	2163.163894999078	147.2233797987178	859.1292037748225	2075.697509563934	1007.845592608613	956.5439829488881	2176.703107274438	322.3288590620448	875.7234883471731	2141.037053031601	349.3864095580467	899.6044943621106	2223.76564673742	387.5190494949255	865.0828048961215	2189.649871943091	418.4723771849973	891.6574491440854	2344.651631373304	671.9053206992515	838.7934609507536	2291.159037940201	629.8787067957832	865.1921066489871	2270.663132342015	752.1430413712402	823.522323467478	2219.546386862339	712.6430615043237	847.5047307408452	2223.245606929923	949.1240811440882	1108.211504259477	593659823.5294201	1132573346.697026	-1980404831.950173	1695.285620209072	152.748133942029	1001.371744831254	1725.264319900635	144.2457554499247	1045.64651728929	1727.874684329964	183.7009969145298	1007.998363198513	2183.424274786169	1016.724932451384	1141.925327006938	1872.762715104879	45.39052228280156	981.5517441375102	1834.159804541003	52.13885414166091	1076.284854500435	2073.276794754425	1005.271338077101	1042.735242348244	1821.046281931918	234.1310190260633	1070.797757008461	1792.821625128708	260.9699352449048	1032.783374739151	1855.192579611923	305.0762636389806	1092.010624193144	1828.423025973212	329.9859158728684	1052.143610728069	2039.408025847036	599.3858948724693	1135.530980392236	1987.772639408846	616.6218809638823	1085.439075042119	2052.466838029167	706.8674600506247	1155.338081091307	2003.81070273226	723.2517292459515	1106.837291209484	
3942	26.27333333333333	2244.236565371456	974.193397452999	921.47300086104	2046.148787061072	248.0911149754497	923.5910799941877	2083.075345368477	244.0719812007697	882.6602432262353	2083.372689301271	277.6279845277255	926.0732599256828	2180.375042899734	1038.785244055721	862.1325127186007	2221.568322605083	123.1431310299525	955.7390745379147	2191.152829880345	137.6002922548224	859.1137964080308	2077.464920034853	1013.29454505302	957.2046472576452	2192.85878300641	313.6103989006519	875.8644972037371	2155.638910705284	338.1858488399554	900.1087705410953	2235.398641090913	381.8207847582474	865.0052319094063	2199.518456352231	410.3934569391225	891.9914302550021	2345.652853470004	677.6699312527685	839.4658737006346	2291.998012303135	635.4245433016069	865.228401296913	2271.676164313452	757.9170504899802	824.2322998589051	2220.446465408678	718.329012196949	847.817318716776	2225.082167881888	953.0048065204303	1108.510453765661	596113662.3542941	1137254818.582576	-1988590023.875247	1685.536990828973	168.5371950666639	1001.756283153267	1714.526498601123	157.4204715152406	1046.06218509527	1720.284047349032	196.8341607949398	1008.854971726942	2186.098177587252	1021.818396906229	1141.609997779646	1854.071944648966	47.46640194171103	982.1461855213424	1815.495962635765	55.9365382786069	1076.818114560403	2075.506078684869	1010.373368574008	1043.522608643968	1809.950096988633	242.7893942378383	1072.096015251763	1782.741796899865	268.9696680897898	1032.906067335075	1843.5880180295	314.1392177874379	1092.864796477161	1817.834130602677	338.3667661028831	1052.032097172963	2031.74022094346	607.6928143480163	1136.143268465041	1981.357563911666	626.1707240826979	1085.260790924268	2047.682345857016	714.922031823349	1155.703798305191	2000.376549507875	732.4272524902759	1106.283233375635	
3943	26.28	2245.307131668208	978.7798345313732	921.6979101621031	2067.575041071491	228.869344732796	924.5370308328498	2104.25931100417	227.3574551383745	883.2379600967782	2102.682361455829	260.9667309339783	926.6263902772245	2181.425722942584	1044.347392827356	862.5316480292518	2251.673332477318	116.5940575416034	955.5745164773426	2219.603158997163	128.5544666762862	859.2502626376902	2079.18547410655	1018.382554963422	957.7916780998415	2209.245642809212	304.8362055969582	875.8927513490054	2170.672475710344	326.843762110426	900.5222173962786	2247.051900049921	375.757014616849	864.8083820366928	2209.572488739856	401.8535998208175	892.2226675813239	2345.793284734781	682.2991391521572	840.2019548037904	2291.899993348951	639.9983180437017	865.4408778911458	2272.005732970576	762.7487132147113	825.0845190066391	2220.608516574674	723.2373701469699	848.4263144386549	2226.908267681305	956.7682543234519	1108.649833137986	598574253.6755822	1141949173.263509	-1996797738.19035	1677.151220019937	184.680665582343	1002.224963242919	1704.863302124285	170.9974538516914	1046.567334416703	1713.866098231749	210.1434276872651	1009.860868409584	2188.669856991989	1026.757878269494	1141.251326666382	1835.995296463597	50.49902724276091	982.7931352796392	1797.341908511053	60.58151735014177	1077.224916770327	2077.666263625992	1015.292987188516	1044.217012976716	1799.77178815628	251.4751023679241	1073.525118581239	1773.596836830935	277.0091512597469	1033.203074187256	1833.040787744479	323.1498281600453	1093.835684705437	1808.315456823497	346.7195150501895	1052.089051326667	2024.995965771927	615.818705289861	1136.850452559553	1975.859546709691	635.302274356681	1085.169133480676	2043.458466798581	722.7982141947691	1156.147939893823	1997.519300134021	741.194298695534	1105.793071968386	
